<?xml version="1.0" standalone="no"?>
<!DOCTYPE svg PUBLIC "-//W3C//DTD SVG 20010904//EN"
 "http://www.w3.org/TR/2001/REC-SVG-20010904/DTD/svg10.dtd">
<svg version="1.0" xmlns="http://www.w3.org/2000/svg"
 width="930.000000pt" height="1497.000000pt" viewBox="0 0 930.000000 1497.000000"
 preserveAspectRatio="xMidYMid meet">

<g transform="translate(0.000000,1497.000000) scale(0.100000,-0.100000)"
fill="#000000" stroke="none">
<path d="M0 7485 l0 -7485 4650 0 4650 0 0 7485 0 7485 -4650 0 -4650 0 0
-7485z m5485 6034 c50 -14 100 -64 114 -114 15 -56 15 -1614 0 -1670 -14 -50
-64 -100 -114 -114 -28 -7 -289 -11 -840 -11 -846 1 -846 1 -897 47 -55 50
-53 9 -56 891 -2 536 1 826 8 851 14 52 46 90 94 112 39 18 84 19 846 19 554
0 817 -4 845 -11z m-3391 -2540 c2 -52 33 -34 57 34 11 30 17 36 34 31 28 -9
27 -7 10 -47 -19 -47 -19 -47 10 -47 18 0 25 -5 25 -20 0 -17 -7 -20 -44 -20
-37 0 -44 -3 -41 -17 2 -10 4 -24 4 -30 1 -7 14 -13 30 -13 17 0 31 -6 35 -16
9 -23 -2 -34 -35 -34 -26 0 -29 -3 -29 -30 0 -29 2 -30 45 -30 41 0 45 -2 45
-25 0 -23 -4 -25 -45 -25 l-45 0 0 -55 c0 -52 -1 -55 -25 -55 -24 0 -25 3 -25
55 l0 55 -45 0 c-41 0 -45 2 -45 25 0 23 4 25 45 25 43 0 45 1 45 29 0 27 -3
30 -37 33 -30 2 -38 7 -38 23 0 16 8 21 38 23 34 3 37 6 37 33 0 28 -2 29 -45
29 -38 0 -45 3 -45 20 0 15 7 20 25 20 30 0 30 2 9 42 -15 30 -15 32 2 45 15
11 19 10 32 -9 8 -11 15 -34 16 -49z m506 51 c9 -17 5 -22 -30 -40 l-40 -20 0
-101 c0 -76 3 -100 13 -97 8 3 14 35 17 94 4 76 8 89 23 92 18 4 19 -4 15
-135 -4 -153 -14 -184 -69 -224 -29 -20 -32 -21 -47 -4 -13 14 -14 18 -4 22
28 11 63 49 71 81 11 37 10 37 -29 17 -16 -8 -31 -12 -33 -7 -2 4 -1 71 2 149
l6 143 45 24 c25 13 46 24 47 25 1 0 7 -8 13 -19z m3000 -25 c-5 -13 -18 -42
-30 -64 -25 -50 -25 -51 0 -51 12 0 25 10 32 25 12 26 17 29 42 19 13 -5 13
-11 -6 -47 -11 -23 -34 -61 -50 -84 -16 -24 -27 -43 -25 -43 3 0 24 7 47 15
23 8 44 15 45 15 1 0 0 -11 -2 -24 -4 -19 -17 -27 -75 -45 -100 -30 -113 -14
-53 65 19 25 35 49 35 53 0 4 -15 5 -34 3 -38 -4 -56 20 -33 47 14 16 31 51
61 124 14 33 18 37 35 27 17 -8 19 -15 11 -35z m214 20 c6 -23 11 -25 61 -25
52 0 55 -1 55 -25 0 -25 -2 -25 -77 -25 l-78 0 -22 -40 -21 -40 21 0 c12 0 39
3 59 6 36 6 36 7 22 29 -13 20 -13 23 2 29 21 8 28 3 65 -50 29 -42 30 -47 15
-62 -14 -15 -17 -15 -29 2 -12 16 -21 17 -103 7 -49 -6 -94 -11 -100 -11 -22
0 -25 33 -6 54 19 21 42 59 42 70 0 3 -16 6 -35 6 -31 0 -35 3 -35 25 0 24 3
25 60 25 59 0 60 0 54 25 -5 22 -3 25 19 25 18 0 27 -7 31 -25z m959 -5 l11
-30 83 0 83 0 0 -90 0 -90 -164 0 -163 0 -7 -51 c-8 -60 -41 -153 -60 -168
-10 -8 -16 -8 -25 3 -9 10 -6 25 10 62 21 50 29 105 32 249 l2 80 82 5 c70 4
81 7 73 20 -16 24 -11 40 11 40 14 0 24 -10 32 -30z m595 -57 c-8 -10 -6 -13
10 -13 15 0 24 12 38 50 15 43 21 49 38 44 29 -9 28 -7 11 -47 -19 -47 -19
-47 10 -47 18 0 25 -5 25 -20 0 -17 -7 -20 -40 -20 -38 0 -40 -2 -40 -30 0
-26 3 -30 29 -30 17 0 31 -6 35 -16 9 -23 -2 -34 -35 -34 -26 0 -29 -3 -29
-30 0 -29 2 -30 45 -30 41 0 45 -2 45 -25 0 -23 -4 -25 -45 -25 l-45 0 0 -55
c0 -52 -1 -55 -25 -55 -24 0 -25 3 -25 55 l0 55 -45 0 c-41 0 -45 2 -45 25 0
23 4 25 45 25 43 0 45 1 45 29 0 27 -3 30 -37 33 -30 2 -38 7 -38 23 0 16 8
21 38 23 34 3 37 6 37 33 0 28 -2 29 -45 29 -38 0 -45 3 -45 20 0 15 7 20 25
20 30 0 30 2 9 42 -15 30 -15 32 2 45 16 12 21 9 41 -24 16 -27 19 -40 11 -50z
m-1991 62 c3 -9 3 -18 1 -21 -3 -3 -46 -10 -96 -16 -86 -11 -93 -13 -129 -50
l-37 -38 54 6 c36 4 64 14 83 30 30 25 44 29 65 16 16 -10 -5 -30 -112 -106
l-79 -57 84 7 c46 4 85 8 87 9 2 2 -3 13 -10 24 -11 18 -11 23 2 31 18 11 40
-8 82 -68 28 -41 29 -45 14 -60 -15 -15 -18 -15 -26 -2 -25 40 -25 41 -81 33
l-54 -8 -2 -73 c0 -40 -6 -79 -13 -87 -17 -21 -86 -20 -94 1 -10 26 -7 29 27
29 l32 0 3 63 3 64 -81 -4 c-71 -3 -81 -1 -86 15 -7 22 -10 19 46 40 25 9 59
28 75 42 l30 26 -61 -6 c-57 -6 -62 -5 -67 15 -4 14 0 23 11 27 25 9 82 53 82
63 0 6 -25 7 -58 4 -51 -6 -60 -4 -66 11 -3 10 -4 20 -1 23 2 3 71 9 151 13
81 5 149 11 152 14 12 12 63 4 69 -10z m-3407 -40 c0 -33 4 -45 15 -45 8 0 15
-9 15 -20 0 -11 -7 -20 -15 -20 -11 0 -15 -12 -15 -45 l0 -45 -50 0 c-27 0
-50 -2 -50 -4 0 -2 -3 -11 -6 -20 -5 -14 4 -16 60 -16 l66 0 0 -95 c0 -88 -1
-95 -20 -95 -11 0 -20 7 -20 15 0 10 -11 15 -35 15 -25 0 -35 -4 -35 -16 0
-10 -7 -14 -22 -12 -21 3 -23 7 -20 61 3 62 -1 68 -27 36 -15 -18 -18 -19 -29
-6 -10 12 -8 24 13 62 29 55 31 75 10 75 -8 0 -15 9 -15 20 0 15 7 20 25 20
20 0 25 5 25 25 0 21 -5 25 -30 25 -23 0 -30 4 -30 20 0 16 7 20 35 20 31 0
35 3 35 25 0 21 -5 25 -30 25 -23 0 -30 4 -30 20 0 19 7 20 90 20 l90 0 0 -45z
m510 26 c0 -10 -7 -21 -15 -25 -12 -4 -15 -29 -15 -136 0 -85 4 -129 10 -125
6 4 10 -5 10 -19 0 -14 -4 -26 -10 -26 -5 0 -10 -22 -10 -50 0 -43 -3 -50 -20
-50 -17 0 -20 7 -20 41 l0 41 -32 -8 c-56 -13 -82 -10 -86 9 -2 10 3 17 12 17
14 0 16 20 16 150 0 125 -3 152 -15 156 -8 4 -15 15 -15 25 0 17 8 19 95 19
87 0 95 -2 95 -19z m3960 -173 c0 -228 -4 -241 -69 -246 -44 -3 -61 7 -61 36
0 9 7 11 20 7 37 -12 60 11 60 60 l0 45 -65 0 -65 0 0 -70 c0 -68 -1 -70 -25
-70 -24 0 -25 2 -25 70 l0 70 -59 0 -58 0 -6 -36 c-3 -20 -16 -56 -28 -81 -21
-44 -22 -44 -40 -26 -18 18 -18 19 3 62 19 38 22 66 26 208 l5 163 193 0 194
0 0 -192z m800 152 c0 -27 5 -43 15 -46 8 -4 15 -14 15 -24 0 -10 -7 -20 -15
-24 -10 -3 -15 -19 -15 -46 l0 -40 -50 0 c-27 0 -50 -2 -50 -4 0 -2 -3 -11 -6
-20 -5 -14 4 -16 60 -16 l66 0 0 -95 c0 -88 -1 -95 -20 -95 -11 0 -20 7 -20
15 0 10 -11 15 -35 15 -24 0 -35 -5 -35 -15 0 -8 -9 -15 -20 -15 -21 0 -22 5
-22 78 0 48 -3 50 -27 21 -15 -18 -18 -19 -29 -6 -10 12 -8 24 13 62 29 55 31
75 10 75 -8 0 -15 9 -15 20 0 15 7 20 25 20 20 0 25 5 25 25 0 21 -5 25 -30
25 -23 0 -30 4 -30 20 0 16 7 20 35 20 31 0 35 3 35 25 0 21 -5 25 -30 25 -23
0 -30 4 -30 20 0 19 7 20 90 20 l90 0 0 -40z m-4500 -138 c0 -117 -4 -172 -12
-180 -16 -16 -45 -15 -51 1 -3 6 -6 -12 -6 -40 -1 -46 -4 -53 -21 -53 -19 0
-20 7 -20 220 l0 220 55 0 55 0 0 -168z m570 120 c63 -31 72 -133 14 -178
l-26 -22 36 -64 c20 -36 36 -68 36 -71 0 -4 -13 -7 -29 -7 -25 0 -33 8 -65 70
-36 69 -38 70 -77 70 l-39 0 0 -70 c0 -68 -1 -70 -25 -70 l-25 0 0 180 0 180
83 0 c58 0 92 -5 117 -18z m730 -137 l0 -155 85 0 c84 0 85 0 85 -25 l0 -25
-110 0 -110 0 0 180 0 180 25 0 25 0 0 -155z m280 80 l0 -75 95 0 95 0 0 75
c0 73 1 75 25 75 l25 0 0 -180 0 -180 -25 0 c-25 0 -25 1 -25 80 l0 80 -95 0
-95 0 0 -80 c0 -79 0 -80 -25 -80 l-25 0 0 180 0 180 25 0 c24 0 25 -2 25 -75z
m550 50 c0 -25 -1 -25 -85 -25 l-85 0 0 -55 0 -55 75 0 c73 0 75 -1 75 -25 0
-24 -2 -25 -75 -25 l-75 0 0 -75 c0 -73 -1 -75 -25 -75 -24 0 -25 2 -26 68 -1
68 -1 242 0 275 1 15 13 17 111 17 l110 0 0 -25z m-1272 -81 c29 -20 52 -66
52 -104 l0 -30 -95 0 c-104 0 -112 -6 -74 -54 23 -30 78 -36 99 -11 7 8 26 15
42 15 26 0 28 -2 18 -20 -16 -29 -63 -50 -114 -50 -36 0 -52 6 -77 28 -27 24
-33 37 -37 85 -8 101 34 157 117 157 26 0 56 -7 69 -16z m297 -9 c24 -23 25
-31 25 -135 l0 -110 -25 0 c-19 0 -25 5 -25 21 l0 20 -26 -20 c-29 -23 -83
-28 -115 -10 -31 16 -41 54 -25 94 16 37 58 55 129 55 30 0 37 4 37 19 0 45
-71 69 -104 36 -19 -19 -56 -20 -56 -1 0 30 50 56 107 56 44 0 58 -5 78 -25z
m-1001 -1 c27 -26 12 -58 -25 -52 -27 3 -37 32 -19 53 16 19 25 19 44 -1z
m2958 -151 c3 -86 3 -88 28 -88 22 0 25 5 28 36 3 31 6 36 23 32 14 -4 19 -14
19 -40 0 -58 -14 -73 -68 -73 -27 0 -53 5 -60 12 -8 8 -12 47 -12 110 0 91 1
98 20 98 17 0 19 -8 22 -87z m-102 40 c0 -61 -18 -110 -56 -150 -34 -36 -36
-37 -50 -18 -12 17 -11 22 10 44 32 35 42 58 50 114 6 37 11 47 27 47 15 0 19
-7 19 -37z m-651 -89 c-13 -14 -42 -39 -65 -54 -40 -28 -40 -28 -53 -8 -11 18
-11 22 1 29 8 4 37 26 64 48 42 34 51 38 63 26 13 -13 12 -18 -10 -41z m275
-6 c46 -41 47 -44 30 -60 -18 -15 -22 -13 -77 38 -48 45 -57 57 -47 69 15 18
28 11 94 -47z m-2479 16 c9 -9 14 -21 12 -27 -6 -18 -33 -31 -51 -24 -19 7
-22 53 -3 60 20 9 25 8 42 -9z m2751 -31 c-2 -3 -35 -16 -72 -29 -53 -20 -69
-22 -75 -12 -17 26 -8 33 69 58 73 24 77 24 80 7 2 -10 1 -21 -2 -24z m2214
-4323 l0 -3210 -3210 0 -3210 0 0 3210 0 3210 3210 0 3210 0 0 -3210z m-7000
-4020 c8 -15 21 -20 50 -20 22 0 40 -4 40 -10 0 -5 -25 -10 -55 -10 -30 0 -55
-3 -55 -8 0 -4 -11 -20 -25 -35 l-26 -27 40 0 c30 0 44 6 55 22 23 33 31 14
10 -23 -18 -30 -105 -99 -125 -99 -21 0 -6 19 37 46 l46 29 -46 3 c-25 2 -46
6 -46 9 0 3 14 22 32 42 l32 36 -37 3 c-53 5 -46 22 9 22 41 0 46 2 41 20 -3
11 -1 20 4 20 4 0 13 -9 19 -20z m570 -5 c-5 -14 -17 -39 -26 -56 -8 -17 -14
-33 -12 -35 10 -9 48 10 53 27 4 10 11 19 16 19 14 0 2 -36 -27 -82 -31 -48
-30 -51 6 -43 17 4 30 2 30 -3 0 -11 -88 -38 -96 -30 -3 3 6 23 21 43 31 46
31 57 3 53 -33 -4 -33 6 -4 73 26 57 56 86 36 34z m110 -5 c-8 -29 -8 -30 26
-30 38 0 38 -1 24 34 -7 20 -6 26 4 26 7 0 16 -13 20 -30 5 -25 10 -30 36 -30
16 0 30 -4 30 -10 0 -5 -13 -10 -30 -10 -25 0 -30 -4 -30 -25 0 -20 5 -25 25
-25 14 0 25 -4 25 -10 0 -5 -11 -10 -25 -10 -21 0 -25 -5 -25 -30 0 -26 4 -30
28 -31 l27 -1 -27 -11 c-21 -8 -28 -18 -28 -37 0 -24 3 -26 30 -22 21 3 30 0
30 -9 0 -11 -15 -13 -66 -11 -39 2 -71 -1 -77 -7 -23 -23 -27 -8 -27 91 0 100
0 101 -20 83 -25 -23 -25 -19 4 46 13 30 26 62 29 72 11 31 26 19 17 -13z
m1395 -1 c0 -22 4 -24 63 -27 l62 -3 0 -114 c0 -62 -3 -120 -6 -129 -4 -11
-19 -16 -45 -16 -47 0 -52 17 -6 22 l32 3 3 108 3 107 -56 0 c-49 0 -55 -2
-55 -21 0 -12 20 -44 45 -71 25 -28 42 -55 38 -60 -3 -6 -25 10 -49 38 -42 46
-45 48 -56 29 -21 -35 -67 -77 -79 -70 -7 5 1 19 21 38 31 30 38 44 54 95 7
21 5 22 -48 22 l-56 0 0 -120 c0 -73 -4 -120 -10 -120 -6 0 -10 50 -10 130 l0
130 65 0 65 0 0 31 c0 20 4 29 13 26 6 -2 12 -15 12 -28z m2015 11 c16 -30 82
-28 103 3 8 12 18 19 22 15 4 -4 2 -14 -5 -23 -11 -13 -6 -15 39 -15 28 0 51
-4 51 -10 0 -6 -60 -10 -160 -10 -100 0 -160 4 -160 10 0 6 23 10 50 10 48 0
50 1 40 20 -7 13 -7 20 -1 20 6 0 15 -9 21 -20z m583 0 c-5 -19 0 -20 86 -20
54 0 91 -4 91 -10 0 -6 -38 -10 -94 -10 -70 0 -97 -4 -106 -15 -13 -16 -4 -39
11 -29 6 3 40 3 75 -1 l65 -7 -3 -101 -3 -102 -32 -3 c-19 -2 -33 1 -33 7 0 6
11 11 25 11 20 0 25 5 25 25 0 24 -2 25 -75 25 l-75 0 0 -35 c0 -19 -4 -35
-10 -35 -6 0 -10 37 -10 92 l0 92 -33 -32 c-49 -47 -53 -27 -6 27 66 75 68 81
14 81 -25 0 -45 5 -45 10 0 6 22 10 50 10 39 0 52 4 60 20 6 11 15 20 19 20 5
0 7 -9 4 -20z m317 0 c8 -14 21 -20 46 -20 21 0 33 -4 29 -10 -3 -5 -42 -10
-86 -10 -46 0 -79 4 -79 10 0 6 16 10 36 10 31 0 36 3 31 20 -3 11 -1 20 4 20
4 0 13 -9 19 -20z m134 -10 l-6 -30 51 0 c28 0 51 -4 51 -10 0 -5 -6 -10 -14
-10 -16 0 -26 -21 -26 -55 0 -12 -7 -39 -16 -60 l-15 -38 37 -38 c49 -50 36
-64 -14 -16 l-38 37 -25 -26 c-28 -30 -58 -48 -66 -40 -4 3 15 24 40 46 l46
41 -17 44 c-12 35 -19 42 -29 33 -22 -18 -23 -5 -1 62 12 36 23 71 24 78 7 27
23 10 18 -18z m796 20 c0 -5 -15 -10 -32 -10 -48 0 -78 -10 -78 -26 0 -11 17
-14 70 -14 40 0 70 -4 70 -10 0 -6 -30 -10 -70 -10 -40 0 -70 -4 -70 -10 0 -5
25 -10 55 -10 l55 0 0 -60 0 -60 -55 0 c-42 0 -55 -3 -55 -15 0 -12 14 -15 67
-15 81 0 80 -7 -2 -12 -46 -3 -61 -8 -63 -21 -3 -14 9 -17 75 -20 43 -1 4 -3
-87 -3 -106 0 -138 2 -90 5 57 5 75 10 75 21 0 11 -16 16 -65 21 l-65 6 68 1
c52 2 67 5 67 17 0 12 -13 15 -55 15 l-55 0 0 60 0 60 55 0 c30 0 55 5 55 10
0 6 -30 10 -70 10 -40 0 -70 4 -70 10 0 6 30 10 70 10 56 0 70 3 70 15 0 12
-14 15 -62 15 -128 0 -38 15 170 29 12 0 22 -3 22 -9z m166 -5 c4 -9 19 -15
40 -15 19 0 34 -4 34 -10 0 -6 -33 -10 -80 -10 -47 0 -80 4 -80 10 0 6 16 10
36 10 28 0 35 3 30 15 -3 8 -1 15 5 15 5 0 12 -7 15 -15z m219 -5 c-3 -5 -26
-12 -50 -16 -43 -6 -45 -8 -45 -40 l0 -34 55 0 c30 0 55 -4 55 -10 0 -5 -7
-10 -15 -10 -12 0 -15 -17 -15 -95 0 -79 -3 -95 -16 -95 -13 0 -15 14 -14 83
1 45 1 88 1 95 -1 6 -12 12 -25 12 -21 0 -24 -5 -30 -62 -8 -70 -31 -132 -45
-124 -6 4 -4 21 6 44 9 21 18 83 22 142 l6 105 44 7 c24 4 46 10 49 12 8 8 23
-4 17 -14z m245 -10 c0 -19 5 -30 14 -30 30 0 46 13 46 36 0 13 5 24 10 24 6
0 10 -13 10 -30 0 -17 3 -29 8 -29 25 4 34 -3 15 -11 -18 -7 -23 -17 -23 -45
0 -32 2 -35 30 -35 17 0 30 -4 30 -10 0 -5 -13 -10 -30 -10 -29 0 -30 -1 -30
-50 0 -27 -4 -50 -10 -50 -5 0 -10 23 -10 50 l0 50 -34 0 c-30 0 -36 -4 -46
-34 -11 -34 -36 -63 -45 -54 -3 2 4 22 15 44 l21 39 -26 3 c-32 4 -33 22 -1
22 40 0 51 64 14 80 -22 8 -21 11 5 14 6 0 13 13 15 29 4 37 22 35 22 -3z
m384 -105 c30 -62 56 -102 85 -128 26 -23 39 -43 34 -48 -14 -14 -89 70 -124
141 l-32 64 -19 -51 c-20 -55 -100 -153 -124 -153 -22 0 -17 10 29 50 45 40
97 132 97 172 0 13 -11 35 -25 48 -13 12 -22 27 -19 32 12 19 57 -40 98 -127z
m270 8 c-1 -175 -3 -193 -14 -193 -5 0 -10 25 -10 56 l0 55 -31 -21 c-16 -12
-33 -20 -36 -17 -6 6 47 56 60 57 4 0 7 43 7 95 0 70 3 95 13 95 9 0 12 -31
11 -127z m116 113 c0 -10 13 -13 46 -12 30 1 49 -4 51 -12 13 -36 -142 -131
-169 -104 -9 9 -7 12 8 12 11 0 29 6 40 14 18 14 18 15 2 21 -10 4 -15 11 -12
16 3 5 16 1 30 -8 23 -15 26 -15 49 7 34 32 31 40 -16 40 -28 0 -51 -8 -75
-26 -49 -38 -53 -24 -7 25 40 43 53 49 53 27z m-7479 -15 c13 -11 21 -22 17
-26 -7 -7 -57 25 -58 38 0 13 17 8 41 -12z m1314 -56 c-6 -62 -5 -75 6 -73 10
2 15 -12 17 -55 4 -76 -14 -107 -63 -107 -19 0 -35 5 -35 10 0 6 13 10 28 10
40 0 52 17 52 76 l0 53 -71 -5 -71 -4 7 53 c4 28 12 55 18 59 17 11 18 4 9
-40 -11 -48 -9 -52 34 -52 36 0 39 5 50 83 l6 47 -66 0 c-42 0 -65 4 -61 10 3
6 38 10 76 10 l71 0 -7 -75z m1913 -77 l-3 -153 -29 -3 c-16 -2 -33 1 -39 7
-8 8 -2 11 21 11 31 0 32 1 32 45 l0 45 -79 0 c-82 0 -91 -5 -91 -48 0 -19
-39 -74 -40 -56 0 6 7 31 15 54 10 27 15 80 15 146 l0 104 100 0 101 0 -3
-152z m822 -3 c0 -97 -4 -155 -10 -155 -5 0 -10 7 -10 15 0 12 -16 15 -85 15
-69 0 -85 -3 -85 -15 0 -8 -7 -15 -15 -15 -14 0 -16 20 -14 142 0 78 3 148 6
155 4 10 33 13 109 13 l104 0 0 -155z m2540 130 c13 -14 20 -28 17 -32 -8 -7
-57 35 -57 49 0 15 16 8 40 -17z m1360 15 c0 -6 -30 -10 -70 -10 -63 0 -70 -2
-70 -20 0 -18 7 -20 55 -20 l55 0 0 -68 0 -69 -57 -2 c-32 -1 -58 -3 -59 -4
-2 -1 -5 -14 -9 -28 -6 -23 -3 -28 26 -38 18 -6 57 -14 86 -18 29 -3 53 -10
53 -16 0 -12 -93 -2 -146 16 -35 12 -43 12 -79 -4 -42 -19 -95 -25 -95 -10 0
5 17 11 38 15 20 3 44 11 52 16 13 9 12 13 -7 27 -34 23 -28 36 7 18 32 -17
50 -13 50 11 0 10 -13 14 -50 14 l-50 0 0 70 0 70 55 0 c48 0 55 2 55 20 0 18
-7 20 -70 20 -40 0 -70 4 -70 10 0 6 57 10 150 10 93 0 150 -4 150 -10z
m-6795 -10 c4 -6 -6 -10 -24 -10 -35 0 -37 -3 -46 -52 -7 -37 -7 -37 24 -33
l31 4 0 -90 c0 -53 -4 -89 -10 -89 -5 0 -10 5 -10 10 0 16 -30 12 -36 -5 -14
-35 -24 -10 -24 57 0 65 -1 70 -15 52 -21 -28 -19 1 4 50 10 23 22 53 25 69 5
22 3 27 -14 27 -11 0 -20 5 -20 10 0 6 24 10 54 10 30 0 58 -4 61 -10z m835 0
c0 -6 -28 -10 -65 -10 l-65 0 0 -35 c0 -50 0 -50 55 -51 76 -2 85 -3 85 -14 0
-6 -28 -10 -65 -10 l-65 0 19 -37 c19 -38 55 -76 99 -105 16 -11 20 -18 12
-23 -17 -11 -80 44 -119 103 l-35 51 -16 -37 c-16 -35 -102 -122 -121 -122
-23 0 -14 19 19 39 46 29 81 71 88 108 l6 28 -61 -3 c-39 -3 -61 0 -61 7 0 10
64 16 111 12 17 -2 29 26 29 67 0 21 -4 22 -65 22 -37 0 -65 4 -65 10 0 6 53
10 140 10 87 0 140 -4 140 -10z m555 -37 c-33 -79 -29 -174 11 -270 3 -7 1
-13 -4 -13 -6 0 -20 19 -31 43 -28 58 -29 174 -1 235 24 53 47 58 25 5z m942
2 c31 -35 17 -76 -49 -142 l-52 -53 62 0 c48 0 62 -3 62 -15 0 -12 -16 -15
-80 -15 -44 0 -80 4 -80 9 0 5 29 41 65 81 67 74 75 93 52 124 -18 25 -69 18
-82 -11 -10 -24 -35 -32 -35 -10 1 16 31 53 50 60 26 10 64 -3 87 -28z m1069
-2 c29 -60 31 -168 4 -231 -12 -29 -27 -52 -32 -52 -6 0 -7 8 -3 18 32 77 37
195 11 256 -19 45 -19 46 -7 46 5 0 17 -17 27 -37z m-3976 17 c0 -6 -48 -10
-124 -10 -73 0 -127 4 -131 10 -4 6 40 10 124 10 81 0 131 -4 131 -10z m1020
-5 c0 -30 -110 -235 -126 -235 -11 0 0 27 40 104 31 57 56 108 56 115 0 7 -23
11 -65 11 -37 0 -65 4 -65 10 0 6 33 10 80 10 65 0 80 -3 80 -15z m1110 -110
c0 -104 -2 -125 -15 -125 -12 0 -15 19 -15 111 l0 110 -30 -21 c-20 -14 -30
-17 -30 -9 0 18 51 58 73 59 15 0 17 -12 17 -125z m170 0 c0 -103 -3 -125 -15
-125 -12 0 -15 21 -17 111 l-3 111 -28 -22 c-41 -33 -48 -13 -7 21 65 53 70
46 70 -96z m840 110 c0 -29 -110 -235 -125 -235 -11 0 0 29 40 105 30 58 55
110 55 115 0 6 -29 10 -65 10 -37 0 -65 4 -65 10 0 6 33 10 80 10 65 0 80 -3
80 -15z m3584 -21 c9 -20 14 -39 11 -42 -3 -3 -6 -3 -7 -1 -17 27 -38 68 -38
73 0 18 19 1 34 -30z m-1011 -14 c-4 -14 0 -20 11 -20 9 0 16 -4 16 -10 0 -5
-14 -10 -30 -10 -19 0 -33 -6 -37 -16 -7 -19 15 -36 39 -28 9 2 19 0 23 -6 4
-6 -6 -10 -24 -10 -17 0 -32 -3 -32 -7 -1 -5 -3 -30 -4 -58 -2 -27 -3 -53 -4
-57 -1 -5 -11 -8 -23 -8 -17 0 -19 3 -10 12 7 7 12 36 12 65 0 53 0 53 -32 53
-37 0 -33 9 5 12 21 2 27 8 27 25 0 20 -5 23 -35 23 -19 0 -35 5 -35 10 0 6 9
10 21 10 16 0 19 4 14 20 -3 11 -2 20 4 20 5 0 13 -9 16 -20 10 -30 51 -27 59
5 4 14 11 23 15 20 5 -3 7 -14 4 -25z m-1173 -3 c0 -18 -45 -78 -53 -71 -7 8
34 84 46 84 4 0 7 -6 7 -13z m72 -4 c10 -9 18 -23 18 -31 0 -12 -6 -10 -25 8
-38 35 -31 58 7 23z m-764 -105 l-3 -113 -29 -3 c-16 -2 -33 1 -39 7 -8 8 -2
11 21 11 l32 0 0 105 c0 66 4 105 10 105 7 0 10 -40 8 -112z m-138 -3 c0 -111
-7 -127 -47 -109 -16 7 -15 8 5 12 18 3 23 9 20 30 -3 26 -12 29 -68 23 -5 -1
-10 -17 -10 -36 0 -19 -4 -35 -10 -35 -6 0 -10 43 -10 110 l0 110 60 0 60 0 0
-105z m-4290 13 c0 -79 0 -81 19 -64 11 10 22 13 25 8 3 -5 -10 -22 -29 -36
l-35 -27 0 90 c0 90 0 91 -25 91 -14 0 -25 5 -25 10 0 6 16 10 35 10 l35 0 0
-82z m4360 2 c0 -47 -4 -80 -10 -80 -6 0 -10 33 -10 80 0 47 4 80 10 80 6 0
10 -33 10 -80z m2243 48 c4 -13 4 -40 2 -61 -2 -29 3 -45 20 -65 22 -25 29
-27 124 -30 60 -2 101 -8 101 -14 0 -7 -36 -9 -100 -6 -83 3 -104 7 -129 26
l-30 22 -19 -25 c-11 -14 -23 -25 -26 -25 -13 0 -5 20 20 49 21 25 25 39 22
78 -3 44 -5 48 -31 51 -35 4 -25 22 13 22 21 0 29 -6 33 -22z m947 -13 c0 -8
9 -15 20 -15 11 0 20 -4 20 -10 0 -5 -9 -10 -20 -10 -16 0 -19 -8 -22 -62 l-3
-63 -37 -3 c-43 -4 -53 15 -10 20 25 3 27 6 27 53 l0 50 -67 3 c-90 4 -88 22
2 22 56 0 70 3 70 15 0 8 5 15 10 15 6 0 10 -7 10 -15z m-7306 -7 c-4 -7 -18
-28 -32 -45 l-24 -33 31 -31 c17 -17 28 -35 25 -41 -3 -5 -20 7 -36 27 -29 34
-31 35 -53 21 -56 -37 -97 -56 -107 -50 -5 4 14 20 43 36 61 33 94 61 117 101
9 15 22 27 30 27 8 0 10 -5 6 -12z m4933 -28 c-10 -25 -8 -32 11 -53 28 -29
16 -45 -13 -17 l-21 20 -34 -35 c-19 -19 -40 -35 -47 -35 -20 0 -16 8 22 41
40 35 43 52 15 72 -28 19 -12 31 17 12 22 -15 24 -14 33 10 6 15 14 24 19 21
5 -4 5 -18 -2 -36z m-3894 -45 c-3 -12 -113 -19 -113 -7 0 16 10 19 62 18 29
-1 52 -6 51 -11z m4927 10 c0 -15 -34 -85 -41 -85 -12 0 -11 16 0 38 5 9 12
25 15 35 5 15 26 25 26 12z m100 -42 c0 -13 -20 -19 -20 -5 0 4 -3 18 -6 32
-5 24 -5 24 10 6 9 -11 16 -26 16 -33z m1149 23 c12 -13 18 -26 13 -30 -5 -3
-19 8 -31 24 -26 36 -14 40 18 6z m-1961 -37 c3 -26 -24 -66 -36 -54 -4 3 0
10 8 15 12 8 13 13 3 30 -18 28 -16 42 5 38 10 -2 18 -14 20 -29z m-4890 4 c3
-10 -33 -13 -157 -13 -93 0 -161 4 -161 9 0 15 43 18 184 17 94 -1 131 -4 134
-13z m172 7 c0 -5 -19 -14 -42 -20 -24 -6 -51 -13 -60 -16 -10 -3 -18 -1 -18
5 0 6 19 15 43 21 23 6 47 13 52 15 18 6 25 5 25 -5z m3086 -245 c4 -9 19 -15
40 -15 19 0 34 -4 34 -10 0 -6 -33 -10 -80 -10 -47 0 -80 4 -80 10 0 6 16 10
36 10 28 0 35 3 30 15 -3 8 -1 15 5 15 5 0 12 -7 15 -15z m214 -4 c0 -6 -20
-13 -44 -16 -41 -7 -44 -9 -48 -41 l-4 -34 58 0 c32 0 58 -4 58 -10 0 -5 -7
-10 -15 -10 -12 0 -15 -17 -15 -95 0 -123 -18 -125 -22 -2 -3 91 -3 92 -29 95
-25 3 -27 0 -33 -57 -9 -77 -24 -121 -42 -121 -12 0 -12 5 2 31 10 21 18 70
21 145 l6 113 36 4 c20 2 44 4 54 5 9 1 17 -2 17 -7z m-167 -70 c-3 -13 2 -21
19 -26 20 -7 19 -9 -14 -12 -21 -2 -39 -8 -39 -14 -5 -31 -3 -34 29 -31 22 2
32 -1 32 -10 0 -8 -12 -13 -32 -13 -33 0 -33 -1 -34 -50 -2 -75 -2 -75 -26
-74 -13 0 -17 3 -10 6 8 3 12 26 12 64 0 59 0 59 -30 59 -16 0 -30 5 -30 11 0
6 7 9 15 5 23 -8 45 4 45 25 0 15 -7 19 -35 19 -19 0 -35 5 -35 10 0 6 9 10
21 10 16 0 19 4 14 20 -3 11 -2 20 4 20 5 0 13 -9 16 -20 10 -30 51 -27 59 5
4 14 11 23 15 20 5 -3 7 -13 4 -24z m-83 -136 c0 -15 -34 -85 -41 -85 -13 0
-11 12 6 54 8 20 20 36 25 36 6 0 10 -2 10 -5z m94 -21 c6 -24 2 -43 -8 -33
-11 10 -17 59 -8 59 5 0 13 -12 16 -26z"/>
<path d="M3768 13455 c-5 -5 -8 -197 -8 -427 l0 -418 394 0 c346 0 395 2 400
15 4 12 10 13 25 6 10 -6 21 -7 25 -4 10 10 7 121 -4 128 -5 3 -10 0 -10 -8 0
-24 -30 -15 -56 16 -16 19 -23 36 -18 46 4 9 9 26 11 38 8 34 63 39 63 5 0
-15 2 -15 10 -2 5 8 10 28 10 44 0 28 -1 29 -15 10 -9 -12 -14 -14 -15 -6 0 7
-4 11 -9 8 -14 -9 -41 4 -41 20 0 14 14 18 58 16 20 -1 22 3 22 51 0 66 -12
89 -31 58 -16 -24 -32 -27 -51 -8 -7 7 -29 17 -48 23 -32 9 -35 13 -35 49 0
22 -4 49 -8 60 -8 25 3 44 29 48 11 1 37 22 58 45 22 23 41 40 44 38 2 -3 13
-1 23 5 23 12 26 44 4 35 -10 -4 -19 3 -27 19 -12 27 -5 56 14 53 7 -2 13 3
13 11 0 19 -5 19 -253 23 -166 2 -216 0 -219 -9 -6 -16 -60 -17 -65 -3 -4 13
-279 26 -290 15z"/>
<path d="M4695 13452 c-15 -15 -1 -23 35 -21 21 2 42 1 45 -2 3 -4 -8 -33 -25
-67 -16 -33 -30 -67 -30 -75 0 -7 -7 -22 -15 -33 -9 -12 -14 -40 -14 -74 l1
-55 9 48 c6 27 19 58 29 70 11 11 20 24 20 29 0 4 12 14 28 22 21 11 30 26 40
67 11 48 10 55 -5 70 -17 16 -107 32 -118 21z"/>
<path d="M4908 13429 c17 -17 37 -46 44 -65 6 -19 18 -34 25 -34 7 0 13 -11
13 -25 0 -24 2 -26 38 -19 20 4 44 10 52 14 8 4 29 10 46 13 29 6 32 3 44 -33
11 -33 18 -39 43 -42 25 -2 32 -9 39 -35 11 -41 -5 -81 -36 -93 -21 -7 -45
-30 -33 -30 18 0 66 24 71 36 11 28 54 16 78 -21 13 -19 31 -38 41 -41 22 -7
12 -24 -14 -24 -11 0 -23 -10 -28 -23 -14 -37 -32 -45 -101 -49 -60 -3 -65 -5
-62 -25 2 -14 -4 -26 -17 -32 -43 -24 -105 -3 -69 23 39 29 65 133 33 133 -9
0 -21 -20 -31 -50 -10 -31 -23 -51 -35 -54 -14 -4 -17 -11 -13 -30 5 -19 2
-25 -15 -30 -11 -3 -21 -9 -21 -14 0 -5 -10 -3 -22 5 -25 15 -88 29 -88 19 0
-15 52 -72 72 -78 36 -12 68 -55 68 -91 0 -32 3 -34 40 -40 46 -8 54 -33 18
-58 -12 -9 -20 -17 -17 -20 2 -2 108 -6 234 -7 l230 -4 3 428 2 427 -332 0
-332 0 32 -31z"/>
<path d="M4690 12751 c0 -89 2 -100 19 -106 11 -3 22 -12 25 -20 4 -12 28 -15
111 -15 58 0 105 3 105 7 0 13 -91 93 -105 93 -7 0 -28 19 -47 42 -18 24 -41
51 -50 60 -10 10 -18 23 -18 28 0 6 -9 10 -20 10 -19 0 -20 -7 -20 -99z"/>
<path d="M4687 12533 c-4 -3 -7 -197 -7 -430 l0 -423 430 0 430 0 -2 428 -3
427 -421 3 c-231 1 -424 -1 -427 -5z m320 -148 c7 -7 10 -15 7 -18 -3 -2 8 -4
25 -3 16 1 33 5 37 9 11 11 114 8 114 -3 0 -22 46 -8 78 23 l33 32 35 -39 c19
-21 34 -43 34 -48 0 -5 9 -23 21 -39 11 -16 17 -29 12 -30 -4 0 1 -4 12 -9 11
-4 31 -6 44 -3 21 5 22 4 12 -16 -10 -18 -9 -21 9 -21 11 0 20 -4 20 -10 0 -5
-4 -10 -10 -10 -5 0 -10 -9 -10 -20 0 -32 -31 -19 -36 15 -1 6 -5 20 -9 33 -6
17 -10 20 -21 11 -11 -9 -11 -13 1 -25 7 -8 12 -23 10 -34 -2 -12 2 -20 10
-20 9 0 12 -6 9 -15 -4 -8 -11 -12 -18 -8 -6 4 -33 8 -61 8 l-49 0 3 48 c2 43
1 47 -21 47 -62 -1 -87 -41 -52 -81 14 -16 2 -17 -158 -23 -95 -4 -189 -5
-208 -3 -19 2 -41 5 -47 6 -16 1 -17 37 -2 46 6 4 7 14 4 24 -17 40 -13 61 16
82 16 11 29 27 29 35 0 9 5 12 12 8 8 -5 9 -2 5 10 -7 16 30 64 46 59 4 -2 7
2 7 7 0 12 36 -5 57 -25z m-204 -157 c-4 -13 -11 -31 -18 -41 -11 -16 -13 -16
-30 3 -16 17 -16 20 -2 26 9 3 13 12 10 20 -4 10 2 14 20 14 21 0 24 -4 20
-22z m118 -155 c52 -2 105 -7 119 -10 25 -6 25 -6 -5 -13 l-30 -8 35 -1 c20 0
45 5 56 13 17 12 25 13 45 2 14 -7 35 -15 47 -18 19 -5 22 -3 17 13 -6 19 -2
20 92 18 55 -1 105 1 111 5 24 15 52 -4 52 -34 0 -16 -4 -32 -10 -35 -5 -3
-10 -33 -10 -65 0 -60 -16 -114 -31 -104 -5 3 -9 0 -9 -5 0 -7 -36 -10 -102
-10 -76 1 -92 4 -63 9 26 5 -13 8 -107 9 -89 0 -149 -3 -153 -9 -3 -5 -34 -9
-68 -8 l-62 1 55 7 c51 7 49 7 -21 5 l-76 -2 1 36 1 36 312 -3 313 -3 0 68 c0
55 -2 64 -12 50 -10 -12 -34 -17 -93 -20 -44 -2 -107 -12 -140 -22 -54 -16
-73 -16 -190 -5 -132 12 -189 25 -179 41 10 17 -9 9 -22 -8 -11 -16 -13 -16
-19 10 -5 19 -2 33 9 46 9 10 16 26 16 36 0 18 1 18 13 1 11 -15 32 -19 108
-23z"/>
<path d="M4922 12228 c-7 -7 -12 -21 -12 -33 0 -29 19 -45 51 -45 34 0 53 23
45 54 -8 32 -61 47 -84 24z"/>
<path d="M5080 12170 c0 -5 6 -10 14 -10 8 0 18 5 21 10 3 6 -3 10 -14 10 -12
0 -21 -4 -21 -10z"/>
<path d="M5368 12043 c7 -3 16 -2 19 1 4 3 -2 6 -13 5 -11 0 -14 -3 -6 -6z"/>
<path d="M5348 11833 c6 -2 18 -2 25 0 6 3 1 5 -13 5 -14 0 -19 -2 -12 -5z"/>
<path d="M4105 12056 c-45 -14 -85 -37 -85 -48 0 -5 16 -8 35 -8 40 0 45 -11
12 -29 -17 -9 -30 -9 -50 -2 -32 12 -59 0 -78 -36 -9 -18 -9 -41 0 -109 13
-96 35 -142 57 -123 8 6 14 19 14 28 0 18 62 47 91 43 8 -2 31 16 51 38 20 22
43 40 50 40 8 0 23 12 34 28 36 49 38 54 16 50 -18 -3 -22 0 -22 15 0 2 26 -2
58 -8 52 -10 59 -14 77 -51 15 -29 20 -59 20 -115 0 -68 1 -74 16 -60 27 27
41 77 41 149 1 80 -7 95 -74 146 -85 65 -169 82 -263 52z m65 -113 c0 -13 3
-13 15 -3 14 12 18 9 13 -7 -5 -13 -40 -14 -69 -1 -19 9 -25 16 -18 24 13 15
59 5 59 -13z"/>
<path d="M4280 11716 c0 -24 16 -27 35 -6 18 19 17 20 -8 20 -17 0 -27 -5 -27
-14z"/>
<path d="M4080 11705 c0 -8 5 -15 10 -15 6 0 10 7 10 15 0 8 -4 15 -10 15 -5
0 -10 -7 -10 -15z"/>
<path d="M4175 11710 c3 -5 13 -10 21 -10 8 0 14 5 14 10 0 6 -9 10 -21 10
-11 0 -17 -4 -14 -10z"/>
<path d="M6620 10901 c0 -26 5 -41 16 -45 9 -3 72 -6 140 -6 l124 0 0 45 0 45
-140 0 -140 0 0 -39z"/>
<path d="M1890 10965 c0 -18 5 -25 20 -25 15 0 20 7 20 25 0 18 -5 25 -20 25
-15 0 -20 -7 -20 -25z"/>
<path d="M1887 10893 c-4 -3 -7 -15 -7 -25 0 -13 7 -18 25 -18 20 0 25 5 25
25 0 18 -5 25 -18 25 -10 0 -22 -3 -25 -7z"/>
<path d="M1880 10691 c0 -40 1 -41 36 -41 35 0 35 1 32 38 -3 34 -6 37 -35 40
-32 3 -33 2 -33 -37z"/>
<path d="M2360 10955 c0 -31 3 -35 25 -35 22 0 25 4 25 35 0 31 -3 35 -25 35
-22 0 -25 -4 -25 -35z"/>
<path d="M2360 10851 c0 -16 6 -31 13 -34 23 -8 37 5 37 34 0 24 -4 29 -25 29
-21 0 -25 -5 -25 -29z"/>
<path d="M2360 10734 c0 -31 3 -35 23 -32 17 2 23 11 25 36 3 29 1 32 -22 32
-23 0 -26 -4 -26 -36z"/>
<path d="M6094 10945 l0 -35 58 0 58 0 0 35 0 35 -58 0 -58 0 0 -35z"/>
<path d="M6260 10945 l0 -35 65 0 65 0 0 35 0 35 -65 0 -65 0 0 -35z"/>
<path d="M6094 10846 c-3 -8 -4 -25 -2 -38 3 -21 9 -23 61 -26 l57 -3 0 41 0
40 -55 0 c-39 0 -57 -4 -61 -14z"/>
<path d="M6262 10823 l3 -38 60 0 60 0 3 38 3 37 -66 0 -66 0 3 -37z"/>
<path d="M7160 10965 c0 -18 5 -25 20 -25 15 0 20 7 20 25 0 18 -5 25 -20 25
-15 0 -20 -7 -20 -25z"/>
<path d="M7157 10893 c-4 -3 -7 -15 -7 -25 0 -13 7 -18 25 -18 20 0 25 5 25
25 0 18 -5 25 -18 25 -10 0 -22 -3 -25 -7z"/>
<path d="M7150 10691 c0 -40 1 -41 36 -41 35 0 35 1 32 38 -3 34 -6 37 -35 40
-32 3 -33 2 -33 -37z"/>
<path d="M2677 10974 c-4 -4 -7 -67 -7 -141 0 -112 2 -133 15 -133 15 0 17 30
20 232 0 39 -12 57 -28 42z"/>
<path d="M3160 10874 l0 -66 57 4 c43 4 61 10 75 28 43 53 7 100 -77 100 l-55
0 0 -66z"/>
<path d="M3481 10834 c-12 -15 -21 -31 -21 -35 0 -5 32 -9 70 -9 39 0 70 3 70
6 0 11 -23 49 -34 56 -24 17 -65 8 -85 -18z"/>
<path d="M3768 10739 c-21 -12 -23 -40 -6 -57 31 -31 108 4 108 50 0 15 -8 18
-42 18 -24 0 -51 -5 -60 -11z"/>
<path d="M1790 8780 l0 -410 410 0 410 0 0 410 0 410 -410 0 -410 0 0 -410z
m700 0 l0 -290 -290 0 -290 0 0 290 0 290 290 0 290 0 0 -290z"/>
<path d="M2020 8785 l0 -175 175 0 175 0 0 175 0 175 -175 0 -175 0 0 -175z"/>
<path d="M2720 9130 l0 -60 60 0 60 0 0 -115 0 -115 60 0 60 0 0 -60 0 -60
-120 0 -120 0 0 -175 0 -175 60 0 60 0 0 60 0 60 60 0 60 0 0 -60 0 -60 55 0
c30 0 55 -3 56 -7 0 -5 1 -29 2 -56 l2 -47 -57 0 -58 0 0 -60 0 -60 -60 0 -60
0 0 -175 0 -175 60 0 60 0 0 -60 0 -60 -60 0 -60 0 0 -115 0 -115 -60 0 -60 0
0 -114 0 -114 -47 -4 c-27 -3 -51 -3 -55 -1 -5 2 -8 29 -8 59 l0 54 -60 0 -60
0 0 60 0 60 60 0 60 0 0 60 0 60 55 0 55 0 0 55 0 55 -55 0 -55 0 0 60 0 60
-175 0 -175 0 0 55 c0 30 3 56 8 56 4 1 27 2 52 3 l45 2 3 57 3 57 -56 0 -55
0 0 60 0 60 230 0 230 0 0 60 0 60 -405 0 -405 0 0 -60 0 -60 115 0 115 0 0
-60 0 -60 -60 0 -60 0 0 -54 c0 -60 -6 -66 -71 -66 l-39 0 0 -55 0 -55 -60 0
-60 0 0 -175 0 -175 60 0 60 0 0 -60 0 -60 -60 0 -60 0 0 -175 0 -175 60 0 60
0 0 -57 0 -58 115 0 115 0 0 58 0 57 60 0 60 0 0 -57 0 -58 52 0 53 0 3 -57 3
-58 -55 0 -55 0 -3 58 -3 57 -55 0 -55 0 -3 -232 -2 -233 60 0 60 0 0 -115 0
-115 -175 0 -175 0 0 55 0 55 55 0 55 0 0 60 0 60 -55 0 -56 0 3 58 3 57 50 1
50 1 3 116 3 117 -116 0 -115 0 0 -60 0 -60 60 0 61 0 -3 -57 -3 -58 -42 -2
c-24 0 -50 -2 -58 -2 -13 -1 -15 -27 -15 -175 l0 -174 58 2 57 1 3 -117 3
-118 54 0 55 0 0 60 0 60 120 0 120 0 0 -60 0 -60 -60 0 -61 0 3 -57 3 -58
113 -3 112 -3 0 -54 0 -55 -55 0 -55 0 0 -175 0 -175 230 0 230 0 0 -60 0 -60
-175 0 -176 0 3 -57 3 -58 115 0 115 -1 3 -57 3 -57 -61 0 -60 0 0 -60 0 -60
-60 0 -60 0 0 60 0 60 -115 0 -115 0 0 -60 0 -60 115 0 115 0 0 -115 0 -114
118 -3 117 -3 3 -57 3 -58 -61 0 -60 0 0 -60 0 -60 115 0 115 0 0 -405 0 -405
60 0 60 0 0 -60 0 -60 60 0 60 0 0 60 0 60 -60 0 -60 0 0 55 0 55 60 0 60 0 0
60 0 60 61 0 c59 0 61 1 55 23 -3 12 -6 39 -6 60 l0 37 -55 0 -55 0 0 -60 0
-60 -60 0 -60 0 0 115 0 115 118 0 119 0 -1 -53 -1 -52 58 -3 57 -3 0 -59 0
-60 60 0 60 0 0 -60 0 -60 -60 0 -60 0 0 -115 0 -115 175 0 175 0 0 60 0 60
60 0 60 0 0 -60 0 -60 175 0 175 0 0 60 0 60 55 0 c53 0 54 0 59 -32 3 -18 5
-44 3 -58 l-2 -25 352 -3 351 -2 1 141 c1 77 -1 156 -5 175 -6 34 -7 34 -60
34 l-54 0 0 60 0 60 115 0 115 0 0 115 0 115 60 0 60 0 0 -60 0 -61 57 3 57 3
-3 58 -2 57 60 0 61 0 0 -60 0 -60 -60 0 -59 0 1 -37 c2 -74 3 -73 -57 -73
l-55 0 0 -60 0 -60 60 0 60 0 0 -44 c0 -77 2 -76 -126 -76 l-114 0 0 -55 0
-55 115 0 115 0 0 55 0 55 60 0 60 0 0 60 0 60 60 0 60 0 0 235 0 236 57 -3
57 -3 -2 -103 c0 -57 1 -109 5 -117 3 -11 21 -15 59 -15 l54 0 0 -55 0 -54
-57 -3 -58 -3 -1 -118 0 -117 58 0 58 0 0 -115 0 -115 292 2 293 3 0 45 c1 68
-1 70 -61 70 l-54 0 0 55 0 55 115 0 115 0 0 -55 0 -55 60 0 60 0 0 -60 0 -60
115 0 115 0 0 60 0 60 175 0 175 0 0 -60 0 -60 235 0 235 0 0 410 0 410 -60 0
-60 0 0 -60 0 -60 -55 0 -55 0 0 -60 0 -60 -60 0 -60 0 0 -175 0 -175 115 0
115 0 0 -55 0 -55 -175 0 -175 0 0 55 0 55 -55 0 -55 0 0 120 0 120 55 0 55 0
0 115 0 115 60 0 60 0 0 60 0 60 -60 0 -60 0 0 115 0 115 60 0 60 0 0 60 0 60
-175 0 -175 0 0 55 c0 37 4 55 13 56 6 1 32 2 57 3 l45 1 3 58 3 57 54 0 55 0
0 -55 c0 -61 -9 -55 85 -59 30 -1 30 0 33 57 l3 57 59 0 60 0 0 -175 0 -175
55 0 54 0 3 -57 3 -58 58 -3 57 -3 0 236 0 235 -115 0 -115 0 0 60 0 60 -175
0 -174 0 -3 58 -3 57 -55 0 -55 0 -3 58 -3 57 61 0 60 0 0 60 0 60 -60 0 -59
0 -3 58 c-3 57 -3 57 -37 60 -19 2 -44 1 -57 -2 -22 -6 -24 -12 -24 -61 l0
-55 60 0 60 0 0 -60 0 -60 -115 0 -115 0 0 175 0 175 115 0 115 0 0 -59 c0
-57 1 -58 28 -59 15 0 66 0 115 -1 l87 -1 0 -55 0 -55 60 0 60 0 0 -60 0 -60
115 0 115 0 0 -115 0 -115 60 0 60 0 0 115 0 115 -60 0 -60 0 0 60 0 60 -55 0
-55 0 0 55 0 55 88 1 c48 1 99 2 115 2 l27 1 0 408 0 408 -115 0 -115 0 0 60
0 60 -120 0 -120 0 0 115 0 115 60 0 59 0 3 -57 3 -58 112 0 113 0 0 -57 0
-58 60 0 60 0 0 115 0 115 -175 0 -175 0 0 60 0 60 115 0 115 0 0 54 c0 67 -3
68 -135 65 l-95 -3 0 -58 0 -58 -60 0 -60 0 0 -60 0 -60 -115 0 -115 0 0 60 0
60 60 0 59 0 3 58 3 57 53 3 52 3 0 55 0 54 60 0 60 0 0 60 0 60 60 0 60 0 0
-60 0 -60 115 0 115 0 0 60 0 60 -115 0 -114 0 -3 58 -3 57 -55 0 -55 0 -3 58
-3 57 61 0 60 0 0 -54 0 -54 48 -4 c26 -3 50 -3 55 -1 4 2 7 56 7 119 l0 114
60 0 60 0 0 290 0 290 -60 0 -60 0 0 60 0 60 60 0 60 0 0 60 0 61 -57 -3 -58
-3 -3 -57 -3 -58 -54 0 -55 0 0 -175 0 -175 -120 0 -121 0 3 57 3 56 40 2 c80
4 75 0 75 60 l0 55 -60 0 -60 0 0 120 0 120 -115 0 -115 0 0 -60 0 -60 -115 0
-115 0 0 -60 0 -60 -60 0 -60 0 0 -115 0 -115 -175 0 -175 0 0 115 0 115 60 0
60 0 0 -60 0 -60 55 0 55 0 0 60 0 59 -56 3 -56 3 -4 40 c-7 75 -7 75 122 75
l114 0 0 115 0 115 60 0 60 0 0 60 0 60 -60 0 -60 0 0 -60 0 -60 -60 0 -60 0
0 120 0 120 -55 0 -54 0 -3 113 -3 112 -175 5 -175 5 -1 40 c-1 78 1 75 -59
75 l-55 0 0 55 0 55 -60 0 -60 0 0 -55 0 -55 -55 0 c-60 0 -56 6 -59 -80 l-1
-35 173 -5 174 -5 -1 -102 c0 -57 0 -107 -1 -113 0 -5 -25 -10 -55 -10 l-55 0
0 55 0 55 -119 0 -119 0 1 -52 2 -53 -57 -3 -58 -3 0 116 0 115 -60 0 -60 0 0
60 0 59 -57 3 -58 3 0 50 0 50 172 3 c191 3 182 -1 179 77 l-1 40 -175 0 -175
0 -1 -45 c-1 -72 1 -70 -59 -70 l-55 0 0 -55 0 -55 -114 0 -114 0 -4 51 c-1
28 -1 53 1 55 2 2 28 4 58 4 l53 0 0 60 0 60 -115 0 -115 0 0 -60 0 -60 -60 0
-60 0 0 60 0 60 -54 0 c-34 0 -56 -5 -59 -12 -2 -7 -4 -58 -3 -113 l1 -100 58
-3 57 -3 0 -59 0 -60 -115 0 -115 0 0 -350 0 -350 -60 0 -60 0 0 350 0 350
-115 0 -115 0 0 -60 0 -60 -115 0 c-103 0 -115 -2 -115 -17 0 -10 -2 -62 -3
-115 l-2 -98 57 0 58 0 0 -60 0 -61 -57 3 -58 3 0 55 0 55 -57 3 -58 3 0 174
0 175 115 0 115 0 0 115 0 115 -54 0 c-62 0 -66 6 -62 78 l3 42 -119 0 -118 0
0 -115 0 -115 60 0 60 0 0 -60 0 -60 -60 0 -60 0 0 -60 0 -60 -59 0 -59 0 2
-37 c5 -78 1 -73 61 -73 l55 0 0 -60 0 -60 -61 0 -61 0 2 48 c2 26 2 53 1 59
-1 9 -46 13 -173 15 l-173 3 0 50 0 50 115 5 115 5 3 58 3 57 54 0 55 0 0 115
0 115 -55 0 -55 0 0 60 0 60 -175 0 -175 0 0 -60 0 -60 -60 0 -60 0 0 60 0 60
-60 0 -60 0 0 -60z m590 -175 l0 -116 -117 3 -118 3 1 55 1 55 57 3 56 3 0 54
0 55 60 0 60 0 0 -115z m1513 -22 c0 -13 -1 -39 -2 -58 l-1 -35 -55 0 -55 0 0
-60 0 -60 -60 0 -60 0 0 60 0 60 60 0 60 0 0 60 0 61 57 -3 c52 -3 57 -5 56
-25z m348 -3 c1 -16 2 -42 3 -57 1 -27 -1 -28 -56 -31 l-58 -3 0 61 0 60 55 0
c54 0 55 0 56 -30z m-111 -265 l0 -54 57 -3 58 -3 0 -55 0 -55 58 -3 57 -3 0
61 0 60 -59 0 -59 0 1 55 1 55 58 0 58 0 0 -55 0 -55 60 0 60 0 0 -60 0 -60
55 0 55 0 0 -60 0 -60 60 0 60 0 0 120 0 120 60 0 60 0 0 -120 0 -120 59 0 58
0 -1 58 -1 57 58 3 57 3 0 -60 0 -60 -57 -3 -58 -3 0 -50 0 -50 58 -3 57 -3 0
-59 0 -60 -54 0 c-60 0 -62 -2 -61 -70 l0 -45 58 -3 58 -3 -3 -57 -3 -57 -48
0 c-31 0 -51 -5 -57 -15 -11 -16 -14 -179 -4 -204 5 -13 25 -16 120 -16 l114
0 0 -175 0 -174 58 -3 57 -3 3 -52 c2 -38 -1 -53 -10 -54 -7 -1 -33 -2 -58 -3
l-45 -1 -3 -57 -3 -58 176 0 175 0 0 58 0 57 -42 -2 c-73 -2 -78 2 -78 63 l0
54 120 0 120 0 0 113 c0 63 2 116 4 118 2 2 27 2 55 1 l51 -4 0 -114 0 -114
-55 0 -56 0 3 -57 3 -58 53 0 52 0 0 -57 0 -58 -55 0 -55 0 0 -60 0 -60 55 0
55 0 0 -115 0 -115 -55 0 -55 0 0 -60 0 -60 -60 0 -59 0 -3 -57 -3 -58 -40 -2
c-22 -1 -48 -2 -57 -2 -15 -1 -18 -11 -18 -56 l0 -55 60 0 60 0 0 -60 0 -60
-60 0 -60 0 0 -115 0 -115 60 0 60 0 0 -60 0 -60 60 0 60 0 0 -175 0 -175 -60
0 -60 0 0 -57 0 -58 -57 0 -58 0 -3 -57 -3 -58 61 0 60 0 0 -60 0 -60 60 0 60
0 0 -58 c0 -56 1 -57 28 -58 15 0 66 -1 115 -2 l87 -2 0 -55 0 -55 60 0 60 0
0 -60 0 -60 -120 0 -120 0 0 -57 0 -58 -55 -3 -55 -2 0 120 0 120 -179 0 -179
0 3 43 c1 23 3 49 4 57 1 12 18 15 98 14 135 -2 133 -2 133 62 l0 55 -117 -3
-118 -3 -3 -56 -3 -56 -112 1 -112 1 -3 58 -3 58 -57 -3 -57 -3 -1 -54 -1 -55
-56 -4 -57 -4 0 61 0 61 -60 0 -60 0 0 115 c0 63 -3 115 -7 115 -5 1 -56 1
-115 2 l-108 0 0 59 0 59 -60 0 -60 0 0 -60 0 -60 -101 4 c-55 3 -107 2 -115
-1 -10 -3 -14 -22 -14 -59 l0 -54 -60 0 -60 0 0 -60 0 -60 60 0 60 0 0 -60 c0
-33 -3 -59 -7 -59 -5 1 -32 1 -60 0 l-53 -1 0 -115 0 -115 -115 0 -115 0 0
-55 c0 -30 -3 -55 -7 -56 -5 0 -30 -1 -58 -2 l-50 -2 -3 -58 -3 -57 60 0 60 0
3 58 3 57 37 3 c60 5 78 -10 78 -68 l0 -50 -60 0 -60 0 0 -60 0 -60 -175 0
-175 0 0 60 0 60 58 0 59 0 -5 30 c-2 16 -1 41 2 55 5 21 12 25 45 25 65 0 71
6 71 66 l0 53 -57 3 -58 3 -3 180 c-2 99 0 204 3 233 l6 52 115 0 115 0 -3 58
-3 57 -170 0 -170 0 -3 -57 -3 -58 -59 0 -60 0 0 -60 0 -61 -56 3 -57 3 2 230
1 230 55 3 55 3 0 59 0 60 -42 -1 c-46 0 -80 -10 -79 -22 1 -4 1 -27 1 -52 l0
-45 -55 0 -55 0 0 115 0 115 -60 0 -59 0 -3 -57 -3 -58 -40 -2 c-22 -1 -48 -2
-57 -2 -15 -1 -18 -11 -18 -56 l0 -55 60 0 60 0 0 -120 0 -120 60 0 60 0 0
-55 0 -55 -60 0 -60 0 0 -60 0 -60 121 0 121 0 -4 -57 -3 -58 115 -1 115 -1 0
-174 0 -174 -55 0 -55 0 -3 -178 -2 -178 -58 3 -57 3 0 115 0 115 -172 3
c-134 2 -173 0 -174 -10 -1 -7 -2 -33 -3 -58 l-1 -45 -57 -3 -58 -3 0 -59 0
-60 58 0 59 0 -3 -55 -2 -55 59 0 59 0 0 55 0 55 118 0 119 0 -2 -55 -1 -55
118 0 118 0 0 -235 0 -235 -60 0 -60 0 0 -60 0 -60 -55 0 c-42 0 -55 4 -56 15
-1 8 -2 34 -3 58 l-1 42 -172 3 -173 2 -1 -107 c-1 -60 -1 -111 0 -115 0 -5
-26 -8 -59 -8 l-60 0 0 115 0 115 -60 0 -60 0 0 -115 0 -115 -55 0 -55 0 -1
100 c-1 55 -2 106 -3 113 -1 8 -22 13 -58 15 l-58 3 0 59 0 59 58 3 57 3 -1
53 -2 52 59 0 59 0 0 120 0 120 60 0 60 0 0 55 0 55 -117 0 -118 0 0 -112 0
-113 -57 -3 -58 -3 0 -59 0 -60 -60 0 -60 0 0 60 0 59 -57 3 -58 3 0 55 0 55
-57 3 -58 3 0 54 0 55 55 0 55 0 0 60 0 60 -55 0 -55 0 0 175 0 175 -175 0
-174 0 -3 -57 -3 -58 -55 0 -55 0 -3 58 -3 57 61 0 60 0 0 60 0 60 115 0 114
0 3 58 3 57 55 0 55 0 3 58 3 57 -61 0 -60 0 0 60 0 60 -60 0 -60 0 0 61 0 61
-102 -2 c-57 -2 -109 -2 -115 -1 -9 1 -13 19 -13 56 l0 55 115 0 115 0 0 60 0
60 60 0 60 0 0 58 0 58 -57 0 -58 -1 -3 58 -3 57 61 0 60 0 0 60 0 60 60 0 60
0 0 -60 0 -60 55 0 c58 0 57 1 57 -60 0 -61 1 -60 -57 -60 l-55 0 0 -55 0 -55
175 0 175 0 0 -60 0 -60 59 0 59 0 -3 -60 -2 -61 58 2 59 2 0 59 0 58 -54 0
c-61 0 -64 4 -58 73 l4 47 115 0 114 0 -3 57 -3 56 -115 1 -115 1 -1 55 0 55
-117 3 -117 3 0 59 0 60 -61 0 -61 0 7 51 c5 39 4 54 -6 60 -8 5 -62 9 -121 9
l-108 0 0 55 0 55 175 0 175 0 0 60 0 60 -175 0 -175 0 0 55 c0 60 -3 58 80
59 l35 1 3 58 3 57 -61 0 -60 0 0 60 0 60 -60 0 -60 0 0 -60 0 -60 -115 0
-115 0 0 60 0 60 115 0 115 0 0 54 c0 62 7 67 78 64 l42 -1 0 -59 0 -58 60 0
60 0 0 -60 0 -60 115 0 115 0 0 60 0 59 -57 3 -58 3 0 50 c0 28 -4 53 -10 58
-5 4 -57 7 -115 5 l-105 -2 -3 57 -3 57 -59 0 -60 0 0 -55 0 -55 -157 -1 c-87
0 -166 -2 -175 -4 -16 -3 -18 5 -18 56 l0 59 -55 0 -55 0 0 60 0 60 -120 0
-120 0 0 -60 0 -60 -55 0 -55 0 0 175 0 175 55 0 55 0 0 60 0 60 120 0 121 0
-3 58 -3 57 -57 3 -58 3 0 114 0 115 60 0 60 0 0 -60 0 -60 175 0 175 0 0 -55
0 -55 -37 -1 c-82 -2 -78 1 -81 -61 l-3 -58 -59 0 -59 0 -3 -117 -3 -118 -52
2 -53 1 0 -59 0 -59 55 0 55 0 0 58 0 57 120 0 120 0 0 -57 0 -58 55 0 54 0 3
57 3 57 55 0 55 1 3 118 3 117 113 0 114 0 4 53 c2 28 3 53 2 55 -1 2 -27 6
-58 9 l-56 6 0 53 0 54 55 0 55 0 0 -49 c0 -58 12 -70 65 -65 22 1 43 3 48 3
4 1 7 26 7 56 l0 55 60 0 60 0 0 60 0 60 -175 0 -175 0 0 60 0 60 58 0 58 0
-4 70 c-2 39 -1 90 2 115 l7 45 55 0 54 0 0 60 0 60 118 0 117 0 0 52 0 53 58
3 57 3 0 59 0 60 60 0 60 0 0 -60 0 -60 54 0 c59 0 62 -3 61 -65 l0 -40 -175
-5 -175 -5 -3 -34 c-2 -19 -1 -44 2 -57 6 -22 12 -24 61 -24 l55 0 0 -60 0
-59 -57 -3 -58 -3 -1 -90 c0 -49 2 -127 4 -172 l5 -83 113 0 114 0 0 60 0 60
55 0 55 0 0 -60 0 -60 -55 0 -55 0 0 -115 0 -115 -60 0 -60 0 0 -60 0 -60 -54
0 c-59 0 -66 7 -60 55 6 56 -2 65 -62 65 l-54 0 0 55 c0 49 -2 55 -24 61 -13
3 -38 4 -57 2 l-34 -3 -3 -117 -3 -118 61 0 60 0 0 -55 0 -55 -60 0 -60 0 0
55 0 55 -115 0 -115 0 0 -61 0 -61 58 4 c41 2 57 0 56 -9 -1 -7 -2 -33 -2 -58
l-2 -45 -115 0 -115 0 0 -60 0 -60 115 0 115 0 1 -42 c2 -69 3 -73 22 -72 9 0
62 1 117 2 l100 2 0 115 0 115 58 0 58 0 1 53 c1 28 2 54 2 57 1 4 168 5 219
1 8 -1 12 -19 12 -56 l0 -54 -117 -3 -118 -3 -3 -90 c-2 -50 1 -101 6 -115
l10 -25 163 1 c90 1 167 2 171 3 3 0 6 79 7 174 l0 172 116 3 115 3 0 -60 0
-61 115 0 115 0 0 175 0 175 -55 0 -55 0 -1 43 c-1 65 -7 72 -66 74 l-53 2 0
-120 0 -119 59 0 59 0 -5 -47 c-7 -72 -7 -72 -60 -69 l-48 2 -3 57 -3 57 -59
0 -60 0 0 60 0 59 -57 3 -58 3 -3 52 c-3 45 0 52 18 58 11 4 39 4 60 0 l40 -7
0 121 0 120 -57 3 c-56 3 -58 4 -57 31 1 15 2 65 3 112 l1 85 175 0 175 0 0
-60 c0 -51 -3 -60 -17 -58 -10 1 -37 0 -60 0 l-43 -2 0 -55 0 -56 56 3 57 3 2
48 c1 26 4 50 8 53 3 3 81 7 174 7 l168 2 2 105 c1 58 2 111 3 118 0 9 53 12
230 12 l230 0 0 60 0 60 60 0 60 0 0 55 0 55 -60 0 -60 0 0 175 0 175 60 0 60
0 0 -55z m-939 -167 c0 -60 0 -112 -1 -118 0 -5 -25 -10 -55 -10 l-55 0 0 -55
0 -55 -60 0 -60 0 0 55 0 55 60 0 60 0 0 120 0 121 56 -3 56 -3 -1 -107z m703
77 c4 -19 6 -97 5 -175 l-2 -140 -175 2 -176 3 2 165 c1 91 2 168 2 173 0 4
76 7 169 7 l169 0 6 -35z m1400 18 c4 -10 7 -58 6 -108 -1 -49 -1 -96 -1 -102
1 -9 19 -13 56 -13 l55 0 0 -55 0 -55 -115 0 -115 0 0 175 0 175 54 0 c42 0
55 -4 60 -17z m-3034 -163 l0 -61 -57 3 -58 3 2 50 c0 28 1 53 2 58 1 4 26 7
56 7 l55 0 0 -60z m236 10 c1 -67 -2 -70 -62 -70 l-54 0 0 60 0 61 57 -3 58
-3 1 -45z m814 -360 l0 -60 -54 0 c-61 0 -63 3 -57 77 l3 43 54 0 54 0 0 -60z
m2690 0 l0 -60 55 0 55 0 0 -61 0 -60 -97 1 c-54 1 -106 1 -115 1 -16 -1 -18
-13 -18 -116 l0 -115 -115 0 -115 0 0 -53 c0 -30 -2 -56 -4 -58 -2 -2 -29 -2
-60 -1 l-56 4 0 54 0 54 60 0 60 0 0 60 0 60 55 0 55 0 0 61 0 60 -55 -5 -55
-6 0 60 0 60 115 0 115 0 0 60 0 60 60 0 60 0 0 -60z m-4910 -404 l0 -114 -55
-4 -55 -3 0 118 0 117 55 0 55 0 0 -114z m5020 54 l0 -60 60 0 61 0 -3 -57 -3
-58 -55 0 -55 0 -3 -57 -3 -58 61 0 60 0 0 -60 0 -60 -60 0 -60 0 0 -115 0
-115 -55 0 -54 0 -3 58 -3 57 -55 0 -55 0 0 175 0 175 55 0 55 0 3 118 3 117
54 0 55 0 0 -60z m-700 -175 l0 -115 -55 0 -55 0 -1 83 c0 45 -2 97 -4 115
l-3 32 59 0 59 0 0 -115z m-3719 -1055 l99 0 0 -170 0 -170 -175 0 -175 0 0
169 c0 194 -6 183 94 175 32 -2 103 -4 157 -4z m4309 -170 l0 -169 -175 -3
-175 -3 0 175 0 175 175 -3 175 -3 0 -169z m350 -114 l0 -55 53 -3 52 -3 3
-57 3 -58 -56 0 -55 0 0 -60 0 -60 55 0 55 0 0 -115 0 -115 -55 0 -54 0 -3
-116 -3 -117 -115 -1 -115 -1 -3 58 -3 57 61 0 60 0 0 60 0 60 60 0 60 0 0
115 0 115 -60 0 -59 0 -3 -57 -3 -56 -165 -2 c-91 -1 -168 -3 -172 -4 -5 0 -8
-26 -8 -56 l0 -55 60 0 60 0 0 -60 0 -60 -60 0 -60 0 0 60 0 60 -60 0 -60 0 0
175 0 175 60 0 60 0 0 -60 0 -60 60 0 60 0 0 60 0 60 55 0 55 0 0 115 0 115
120 0 120 0 0 -54z m-4670 -236 l0 -60 -60 0 -60 0 0 60 0 60 60 0 60 0 0 -60z
m0 -235 l0 -55 -60 0 -60 0 0 55 0 55 60 0 60 0 0 -55z m2914 -465 l0 -55 -57
-3 -57 -3 0 61 0 61 58 -3 57 -3 -1 -55z m-234 -121 l0 -60 -57 2 -58 3 0
-170 0 -169 95 -2 c142 -4 140 -3 140 -68 l0 -55 115 0 115 0 0 -60 0 -60 60
0 61 0 -3 118 -3 117 -55 0 -55 0 -3 58 -3 57 -53 0 c-61 0 -66 6 -66 76 l0
44 60 0 60 0 0 -60 0 -60 115 0 115 0 0 -43 c0 -64 16 -80 73 -75 l47 5 0
-119 0 -118 -54 0 c-30 0 -57 -3 -59 -7 -2 -5 -2 -32 1 -61 l4 -52 171 2 172
3 0 55 0 55 -57 3 -58 3 0 114 0 115 28 1 c15 1 34 3 42 4 8 1 22 3 30 4 12 1
16 14 15 54 l0 52 118 3 117 3 0 -56 0 -55 -44 0 c-70 0 -76 -5 -76 -66 l0
-54 235 0 235 0 0 -60 0 -60 -235 0 -236 0 3 -57 3 -58 58 -3 57 -3 0 -114 0
-115 -114 0 c-128 0 -126 -1 -126 76 l0 44 -115 0 -115 0 0 -120 0 -119 -57
-3 -58 -3 -2 -110 -2 -110 -115 -3 -116 -3 0 61 0 60 60 0 60 0 0 55 0 55 58
0 58 0 -2 53 c-2 28 -3 55 -3 60 -1 4 -53 7 -116 7 l-115 0 0 60 0 60 60 0 60
0 0 55 0 55 -118 0 -118 0 4 35 c2 19 1 46 -2 60 -6 23 -11 25 -61 25 l-55 0
0 60 0 60 -60 0 -60 0 0 -60 0 -60 -60 0 -61 0 3 -57 3 -58 58 -3 57 -3 0 -54
0 -55 -115 0 -115 0 0 115 0 115 -60 0 -61 0 3 118 3 117 57 3 58 3 2 172 3
172 53 3 52 3 0 48 c0 26 3 51 7 54 3 4 30 7 60 7 l53 0 0 -61z m233 -66 c3
-10 4 -36 3 -58 l-1 -40 -57 -3 -58 -3 0 59 0 59 54 2 c45 2 55 -1 59 -16z
m705 -142 c2 -19 1 -44 -2 -57 -6 -22 -12 -24 -61 -24 l-55 0 0 60 0 61 58 -3
c57 -3 57 -3 60 -37z m-3388 -371 l0 -60 -60 0 -60 0 0 60 0 60 60 0 60 0 0
-60z m1989 -321 c1 -77 -1 -156 -5 -175 l-6 -34 -172 2 -171 3 -2 164 c-1 90
0 168 3 173 3 4 83 8 179 8 l173 0 1 -141z m2101 -34 l0 -175 -175 0 -175 0 0
175 0 175 175 0 175 0 0 -175z m460 -230 l0 -55 -55 0 -55 0 0 55 0 55 55 0
55 0 0 -55z m-1050 -115 l0 -60 60 0 60 0 0 60 0 60 175 0 175 0 0 -60 0 -60
-175 0 -175 0 0 -60 0 -60 -60 0 -60 0 0 60 0 60 -57 0 -58 0 3 60 4 60 54 0
54 0 0 -60z m-350 -120 l0 -61 -57 3 -58 3 -1 50 c-1 28 0 53 3 58 2 4 29 7
59 7 l54 0 0 -60z m-1980 -115 l0 -55 -60 0 -60 0 0 55 0 55 60 0 60 0 0 -55z
m469 0 l-2 -55 -59 0 -58 0 0 55 0 55 61 0 60 0 -2 -55z m231 0 l0 -55 -60 0
-60 0 0 55 0 55 60 0 60 0 0 -55z m1162 0 l3 -55 -57 0 -58 0 0 55 0 55 54 0
54 0 4 -55z"/>
<path d="M5060 8430 l0 -60 54 0 c30 0 57 3 59 8 3 4 2 31 0 60 l-6 52 -53 0
-54 0 0 -60z"/>
<path d="M5290 8375 l0 -115 -115 0 -115 0 0 -60 0 -60 -60 0 -60 0 0 -60 0
-60 -175 0 -175 0 0 -54 c0 -50 2 -54 27 -60 14 -4 65 -6 112 -5 l85 2 8 -28
c4 -16 5 -32 2 -37 -3 -4 -2 -17 1 -28 5 -17 15 -20 61 -20 l54 0 0 55 0 55
53 1 c28 1 55 1 60 0 4 0 7 26 7 59 l0 60 115 0 115 0 0 -115 0 -115 -55 0
c-49 0 -55 -2 -61 -24 -3 -13 -4 -38 -2 -57 3 -34 3 -34 61 -37 l57 -3 0 -53
0 -53 -107 -5 c-60 -3 -111 -3 -115 -1 -5 2 -8 29 -8 59 l0 54 -60 0 -59 0 -3
-57 -3 -58 -45 -1 c-25 -1 -49 -2 -55 -3 -6 0 -9 -24 -7 -56 l4 -55 -61 0 -60
0 -3 58 -3 57 -55 -1 -55 -1 -3 -57 -3 -57 -57 3 c-51 3 -57 5 -60 27 -2 13
-1 39 3 58 6 33 8 34 48 33 69 -3 67 -4 67 55 l0 55 60 0 60 0 0 60 0 60 -60
0 -60 0 0 -60 0 -60 -55 0 c-50 0 -55 2 -61 26 -4 14 -4 41 -1 60 l6 34 -60 0
-59 0 0 -60 0 -60 -60 0 -60 0 0 -115 0 -115 60 0 60 0 0 -60 0 -60 58 0 57 0
0 -57 0 -58 55 0 55 0 3 118 3 117 59 0 60 0 0 -60 0 -60 60 0 60 0 0 -55 0
-55 -107 -2 c-60 0 -114 -1 -120 -1 -9 1 -13 -17 -13 -58 l0 -59 60 0 60 0 0
-60 0 -60 -60 0 -60 0 0 -55 c0 -59 2 -58 -66 -55 -47 2 -51 -4 -49 -72 l2
-48 -58 0 -58 0 -3 56 -3 57 -55 1 -55 1 -3 57 -3 57 118 3 118 3 2 35 c4 81
6 80 -122 80 l-115 0 0 -60 0 -60 -55 0 -55 0 0 -44 c0 -24 -3 -52 -6 -60 -4
-12 -1 -16 12 -14 11 0 38 0 62 0 l42 -2 0 -55 0 -55 -55 0 c-59 0 -59 -1 -55
66 1 33 -19 57 -47 54 -10 -1 -30 -2 -45 -1 -27 1 -28 3 -28 56 l0 55 -60 0
-60 0 0 -175 0 -175 -58 0 -59 0 1 -52 1 -53 -53 -5 c-29 -3 -55 -4 -58 -1 -2
2 -4 28 -4 58 l0 53 54 0 c30 0 57 3 59 8 2 4 2 31 -1 60 l-4 52 -114 0 -114
0 0 -60 0 -60 -54 0 c-60 0 -66 7 -66 83 l0 37 -55 0 -55 0 0 -235 0 -234 58
-3 57 -3 5 -55 5 -55 50 -1 50 -1 3 -56 3 -57 59 0 60 0 0 -60 0 -61 58 3 57
3 0 55 0 55 -57 3 -58 3 0 114 0 115 55 0 c37 0 56 4 57 13 0 6 2 32 2 57 l2
45 117 3 117 3 0 -61 0 -60 -60 0 -60 0 0 -59 0 -58 -57 0 -57 1 -1 -57 -2
-57 118 0 119 0 0 115 0 115 55 0 c30 0 55 3 56 8 6 42 6 71 2 90 -5 19 -11
22 -59 22 l-54 0 0 115 0 115 60 0 60 0 -6 -55 c-7 -61 -11 -58 69 -55 l47 1
0 -60 0 -61 60 0 60 0 0 -115 c0 -127 7 -117 -75 -119 l-40 -1 -3 -169 c-2
-121 1 -172 9 -177 7 -4 34 -6 60 -4 l49 3 0 -59 0 -59 -60 0 -61 0 3 -117 3
-118 55 0 55 0 3 58 3 57 58 0 c41 0 59 4 58 13 0 6 1 33 1 60 l2 47 55 0 55
0 0 54 c0 59 6 64 80 62 l35 -1 3 -57 3 -57 57 -3 57 -3 2 -160 c1 -88 2 -166
3 -172 0 -9 18 -13 55 -13 l55 0 0 55 0 55 44 0 c70 0 76 5 76 66 l0 54 115 0
115 0 0 60 0 60 121 0 121 0 -4 115 -3 115 57 0 57 0 3 -57 3 -58 112 0 c132
0 125 8 122 -139 l-2 -91 57 -3 56 -3 0 -60 0 -60 175 1 175 2 0 119 0 119 60
0 60 0 0 115 0 115 -60 0 -60 0 0 -115 0 -115 -55 0 c-45 0 -55 -3 -56 -17 -1
-10 -2 -36 -3 -58 l-2 -40 -57 -3 -57 -3 0 61 0 60 54 0 54 0 5 78 c3 42 5 93
4 112 l-2 35 -232 3 -232 2 -3 117 -3 118 -55 0 -55 0 -3 58 -3 57 -58 0 -57
0 0 58 1 57 -57 3 -58 3 0 -61 0 -60 -60 0 -60 0 0 175 0 175 60 0 59 0 3 -57
3 -58 110 0 110 0 3 58 3 57 -56 0 c-30 0 -55 3 -55 8 0 4 -1 57 -2 117 l-1
110 171 2 c166 3 172 2 172 -17 1 -11 1 -60 1 -110 0 -49 0 -94 -1 -100 0 -5
-25 -10 -55 -10 l-55 0 0 -57 0 -58 58 0 57 1 -3 57 -4 57 61 0 61 0 0 -115 0
-115 -54 0 c-34 0 -56 -5 -59 -13 -2 -6 -5 -56 -6 -110 -2 -97 -2 -97 25 -107
14 -6 67 -9 118 -8 l91 3 3 -57 3 -58 54 0 54 0 6 53 c4 28 5 106 3 172 l-3
120 -57 3 -58 3 0 174 0 175 115 0 115 0 0 -60 0 -60 -57 0 -58 0 2 -52 c1
-29 2 -55 2 -58 1 -3 26 -3 56 -2 l55 4 0 54 0 54 60 0 60 0 0 60 0 60 60 0
61 0 -3 58 -3 57 -55 0 -55 0 -3 -57 -3 -58 -60 0 -60 0 3 58 3 57 58 -1 57 0
0 58 0 58 -175 0 -175 0 0 60 0 60 -60 0 -60 0 0 -60 0 -60 -115 0 -115 0 0
60 0 60 55 0 55 0 0 115 0 115 60 0 60 0 0 -54 0 -54 50 -4 c28 -1 55 -1 60 0
6 2 10 28 10 58 l0 54 -60 0 -60 0 0 60 0 60 -115 0 -115 0 0 54 c0 30 -5 58
-10 61 -6 4 -33 4 -60 0 l-50 -7 0 -54 0 -54 60 0 60 0 0 -60 0 -60 -60 0 -59
0 -3 -57 -3 -58 -50 0 c-46 0 -50 2 -53 25 -10 93 -8 90 -68 90 l-55 0 3 -57
3 -57 56 3 55 2 -1 -60 0 -61 57 0 58 0 0 -60 0 -60 -61 0 -60 0 2 -52 3 -53
-54 -5 -55 -5 -3 -57 -3 -58 -117 0 -117 0 0 55 c0 50 3 56 23 62 12 3 38 3
57 1 l35 -4 0 58 0 58 60 0 60 0 0 60 0 60 -60 0 -60 0 0 58 0 57 -60 -3 -59
-4 3 -51 2 -52 57 -3 57 -3 0 -59 0 -60 -115 0 -115 0 0 -115 0 -115 -60 0
-60 0 0 -60 0 -60 -230 0 -229 0 -6 34 c-4 18 -5 44 -3 57 3 22 9 24 60 27
l57 3 3 57 3 57 40 1 c79 3 75 -1 75 59 l0 54 58 3 57 3 0 115 0 115 168 1
c92 1 170 4 172 6 3 2 5 28 6 56 l2 52 58 0 58 0 3 118 3 117 105 3 c58 2 111
5 118 7 9 4 12 32 10 112 l-3 108 -57 3 -58 3 0 114 0 114 57 3 57 3 0 55 1
55 -117 3 -118 3 0 59 0 59 117 3 117 3 0 50 1 50 -58 3 -57 3 0 59 0 60 -60
0 -60 0 0 -115z m120 -645 l0 -60 -60 0 -60 0 0 60 0 60 60 0 60 0 0 -60z
m-350 -292 l0 -118 -115 0 c-127 0 -116 -7 -118 75 l-1 40 57 3 57 3 0 60 0
60 60 -2 60 -2 0 -119z m698 -291 l3 -57 -61 0 -60 0 0 53 c0 30 2 56 5 58 2
3 28 5 57 4 l53 -1 3 -57z m-1398 -467 l0 -60 -60 0 -60 0 0 60 0 60 60 0 60
0 0 -60z m812 -282 c-4 -252 -5 -248 75 -248 l43 0 0 -55 0 -55 60 0 60 0 0
115 0 116 58 -3 57 -3 0 -170 0 -170 -232 -3 -233 -2 0 -54 c0 -58 -7 -66 -60
-66 -53 0 -60 8 -60 66 l0 54 60 0 61 0 -3 118 -3 117 -57 3 -58 3 0 54 0 55
60 0 60 0 0 60 0 60 -60 0 -60 0 0 115 0 115 118 0 117 0 -3 -222z m-1512 51
l0 -59 -60 0 -60 0 0 -60 0 -60 -54 0 c-52 0 -54 1 -60 31 -8 43 -8 194 1 203
4 4 58 6 120 5 l113 -1 0 -59z m1168 -118 c2 -125 -1 -166 -10 -173 -7 -4 -86
-8 -174 -8 -139 0 -163 2 -168 16 -8 22 -8 319 1 328 4 3 84 5 177 4 l171 -3
3 -164z m-353 -348 l0 -58 58 -3 57 -3 0 61 0 60 60 0 60 0 0 -60 0 -60 58 0
59 0 0 -55 c0 -62 -10 -70 -78 -63 -34 3 -34 3 -37 61 l-3 57 -59 0 -60 0 0
-60 0 -60 -99 0 c-55 0 -106 3 -115 6 -13 5 -16 25 -16 120 l0 114 58 0 58 0
-1 -57z m815 -233 l0 -60 -60 0 c-59 0 -60 0 -60 29 0 16 3 43 6 60 6 30 8 31
60 31 l54 0 0 -60z m820 -5 l0 -55 -60 0 -60 0 0 55 0 55 60 0 60 0 0 -55z
m-1050 -115 l0 -60 -60 0 -60 0 0 60 0 60 60 0 60 0 0 -60z"/>
<path d="M4590 6330 l0 -60 60 0 60 0 0 60 0 60 -60 0 -60 0 0 -60z"/>
<path d="M3190 8080 l0 -60 115 0 c63 0 115 3 116 8 0 4 2 31 4 60 l4 52 -120
0 -119 0 0 -60z"/>
<path d="M5067 7904 c-4 -4 -7 -31 -7 -61 l0 -53 54 0 c40 0 55 4 60 16 8 22
7 77 -2 90 -8 12 -94 18 -105 8z"/>
<path d="M2020 7265 c0 -30 3 -55 8 -55 126 -7 201 -8 215 -4 13 4 17 17 17
60 l0 54 -120 0 -120 0 0 -55z"/>
<path d="M2370 7030 l0 -60 120 0 120 0 0 60 0 60 -120 0 -120 0 0 -60z"/>
<path d="M5640 6448 l0 -58 60 0 61 0 -3 57 -3 57 -57 1 -58 1 0 -58z"/>
<path d="M3660 5573 l0 -118 -57 0 -58 0 -3 -58 -3 -58 -57 3 -57 3 0 45 c0
65 -8 72 -66 65 l-49 -6 0 60 0 61 -60 0 -60 0 0 -57 0 -58 -57 2 c-63 1 -59
-5 -62 78 l-1 35 -55 0 -54 0 -3 -57 -3 -58 -55 0 -55 -1 -3 -57 -3 -57 116 0
c133 0 119 17 120 -142 0 -80 -3 -97 -15 -96 -8 1 -34 0 -57 0 l-43 -2 0 -55
0 -55 60 0 59 0 -3 50 c-4 59 2 65 67 65 l47 1 0 -118 0 -118 60 0 61 0 -3
-55 -3 -56 -115 -2 -115 -2 0 -55 0 -55 118 -3 117 -3 0 -59 0 -60 55 0 c37 0
55 4 56 13 1 6 2 32 3 57 l1 45 118 3 118 3 -3 57 -3 57 -117 3 -117 3 0 114
1 115 59 0 59 0 0 -60 0 -60 60 0 60 0 0 60 0 60 59 0 58 0 1 55 0 55 -168 0
c-120 0 -171 3 -176 12 -4 7 -6 34 -5 60 l2 48 -60 0 -60 0 -3 -57 -3 -58 -55
0 -55 0 -3 118 -3 117 119 0 119 0 -1 -57 -1 -58 58 -3 57 -3 0 61 0 60 60 0
60 0 0 -60 0 -61 57 3 57 3 2 40 c3 70 -1 75 -62 75 l-55 0 3 58 3 57 53 0
c28 0 52 2 53 5 0 3 1 55 2 115 l1 110 -57 3 -57 3 0 -118z m-244 -475 c5 -7
9 -33 8 -58 l0 -45 -57 -3 -57 -3 0 55 c0 59 4 63 66 65 17 0 36 -5 40 -11z"/>
<path d="M5527 5683 c-3 -5 -5 -32 -4 -60 l0 -53 58 0 58 0 3 -57 3 -58 55 0
55 0 3 118 3 117 -115 0 c-63 0 -117 -3 -119 -7z"/>
<path d="M5760 5398 l0 -58 115 0 116 0 -3 57 -3 57 -112 0 -113 1 0 -57z"/>
<path d="M6110 5280 l0 -60 54 0 c60 0 64 4 62 70 l-1 45 -57 3 -58 3 0 -61z"/>
<path d="M4590 5165 c0 -42 4 -55 15 -56 8 -1 34 -2 58 -3 l42 -1 3 58 3 57
-61 0 -60 0 0 -55z"/>
<path d="M4758 5102 l-48 -3 0 -55 0 -54 -60 0 -60 0 0 -60 0 -60 60 0 60 0 0
60 0 60 59 0 59 0 -2 50 c-1 27 -6 53 -11 57 -6 5 -31 7 -57 5z"/>
<path d="M4010 4930 l0 -60 -60 0 -60 0 0 -55 c0 -37 4 -55 13 -55 67 -3 210
0 214 4 3 3 6 26 7 53 l1 48 58 3 57 3 0 59 0 60 -115 0 -115 0 0 -60z"/>
<path d="M3190 4345 l0 -55 60 0 60 0 0 55 0 55 -60 0 -60 0 0 -55z"/>
<path d="M3660 4230 l0 -60 54 0 54 0 4 56 c1 31 1 58 -1 60 -2 2 -28 4 -58 4
l-53 0 0 -60z"/>
<path d="M3890 4170 l0 -119 -57 -3 c-56 -3 -58 -4 -61 -32 -2 -15 -1 -39 2
-52 6 -24 9 -24 121 -24 l115 0 0 175 0 175 -60 0 -60 0 0 -120z"/>
<path d="M4125 3995 l0 -55 58 0 57 0 0 55 0 55 -58 0 -57 0 0 -55z"/>
<path d="M4590 8430 l0 -60 60 0 60 0 0 60 0 60 -60 0 -60 0 0 -60z"/>
<path d="M6930 7380 l0 -60 55 0 55 0 0 60 0 60 -55 0 -55 0 0 -60z"/>
<path d="M2490 6330 l0 -60 60 0 60 0 0 60 0 60 -60 0 -60 0 0 -60z"/>
<path d="M6690 6330 l0 -60 60 0 60 0 0 60 0 60 -60 0 -60 0 0 -60z"/>
<path d="M7040 5980 l0 -60 60 0 60 0 0 60 0 60 -60 0 -60 0 0 -60z"/>
<path d="M5060 4580 l0 -60 55 0 c58 0 57 -1 57 55 0 67 2 65 -57 65 l-55 0 0
-60z"/>
<path d="M4590 4230 l0 -60 60 0 60 0 0 60 0 60 -60 0 -60 0 0 -60z"/>
<path d="M6690 4230 l0 -60 60 0 60 0 0 60 0 60 -60 0 -60 0 0 -60z"/>
<path d="M4010 9075 l0 -115 61 0 61 0 -4 55 -5 55 59 0 58 0 0 -55 0 -55 60
0 60 0 0 55 0 55 -60 0 -60 0 0 60 0 60 -115 0 -115 0 0 -115z"/>
<path d="M5878 9168 c0 -13 -1 -32 -1 -43 1 -56 0 -55 58 -55 l55 0 0 -55 0
-55 60 0 60 0 0 55 0 54 56 3 57 3 1 55 0 55 -172 3 -172 2 -2 -22z"/>
<path d="M6460 9130 l0 -60 -120 0 -120 0 0 -55 0 -55 60 0 59 0 3 -117 3
-118 58 -3 57 -3 0 61 0 60 60 0 60 0 0 175 0 175 -60 0 -60 0 0 -60z"/>
<path d="M6690 8780 l0 -410 410 0 410 0 0 410 0 410 -410 0 -410 0 0 -410z
m700 0 l0 -290 -290 0 -290 0 0 290 0 290 290 0 290 0 0 -290z"/>
<path d="M6930 8785 l0 -175 175 0 175 0 0 175 0 175 -175 0 -175 0 0 -175z"/>
<path d="M1790 7965 l0 -55 35 -1 c19 -1 45 -2 58 -2 20 -1 22 4 25 56 l3 57
-61 0 -60 0 0 -55z"/>
<path d="M2492 7963 l3 -58 113 -3 112 -3 0 60 0 61 -115 0 -116 0 3 -57z"/>
<path d="M1790 5685 l0 -115 60 0 60 0 0 60 0 60 115 0 115 0 0 55 0 55 -175
0 -175 0 0 -115z"/>
<path d="M2022 5513 l3 -58 58 -1 57 -1 0 59 0 58 -60 0 -61 0 3 -57z"/>
<path d="M1796 5452 c-4 -3 -6 -29 -6 -59 l0 -53 60 0 61 0 -3 57 -3 58 -52 1
c-29 1 -54 -1 -57 -4z"/>
<path d="M1910 5105 l0 -115 -60 0 -60 0 0 -60 0 -60 115 0 115 0 0 115 0 114
58 3 57 3 3 58 3 57 -116 0 -115 0 0 -115z"/>
<path d="M1917 4753 c-4 -3 -7 -57 -7 -120 l0 -113 -60 0 -60 0 0 -60 0 -60
175 0 175 0 0 60 0 60 60 0 60 0 0 60 0 60 -120 0 -120 0 0 60 0 60 -48 0
c-27 0 -52 -3 -55 -7z"/>
<path d="M1790 3880 l0 -410 410 0 410 0 0 410 0 410 -410 0 -410 0 0 -410z
m700 0 l0 -290 -290 0 -290 0 0 290 0 290 290 0 290 0 0 -290z"/>
<path d="M2020 3875 l0 -175 175 0 175 0 0 175 0 175 -175 0 -175 0 0 -175z"/>
<path d="M5410 3645 l0 -55 -60 0 -60 0 0 -60 0 -61 118 3 117 3 0 110 0 110
-57 3 -58 3 0 -56z"/>
<path d="M1530 2225 c0 -22 4 -25 35 -25 31 0 35 3 35 25 0 22 -4 25 -35 25
-31 0 -35 -3 -35 -25z"/>
<path d="M1530 2150 c0 -28 3 -30 35 -30 32 0 35 2 35 30 0 28 -3 30 -35 30
-32 0 -35 -2 -35 -30z"/>
<path d="M1548 2102 c-28 -6 -23 -49 5 -54 34 -7 47 1 47 27 0 23 -20 34 -52
27z"/>
<path d="M5497 2203 c-4 -3 -7 -15 -7 -25 0 -16 9 -18 75 -18 73 0 75 1 75 25
0 24 -2 25 -68 25 -38 0 -72 -3 -75 -7z"/>
<path d="M5494 2136 c-11 -28 7 -36 77 -36 61 0 69 2 69 19 0 23 -10 27 -83
30 -43 2 -58 -1 -63 -13z"/>
<path d="M5966 2241 c-3 -5 3 -33 13 -62 18 -51 19 -53 28 -29 6 14 13 42 17
63 7 36 6 37 -23 37 -16 0 -32 -4 -35 -9z"/>
<path d="M6560 2195 c0 -11 12 -15 45 -15 33 0 45 4 45 15 0 11 -12 15 -45 15
-33 0 -45 -4 -45 -15z"/>
<path d="M6670 2195 c0 -11 12 -15 45 -15 33 0 45 4 45 15 0 11 -12 15 -45 15
-33 0 -45 -4 -45 -15z"/>
<path d="M6560 2145 c0 -11 12 -15 45 -15 33 0 45 4 45 15 0 11 -12 15 -45 15
-33 0 -45 -4 -45 -15z"/>
<path d="M6670 2145 c0 -11 12 -15 45 -15 33 0 45 4 45 15 0 11 -12 15 -45 15
-33 0 -45 -4 -45 -15z"/>
<path d="M7408 2225 c-5 -43 -3 -45 34 -45 28 0 29 2 26 38 -3 32 -7 37 -29
40 -24 3 -27 -1 -31 -33z"/>
<path d="M3757 2293 c-4 -3 -7 -19 -7 -35 l0 -28 80 0 80 0 0 35 0 35 -73 0
c-41 0 -77 -3 -80 -7z"/>
<path d="M3750 2175 l0 -35 80 0 80 0 0 35 0 35 -80 0 -80 0 0 -35z"/>
<path d="M4560 2245 l0 -55 85 0 85 0 0 55 0 55 -85 0 -85 0 0 -55z"/>
<path d="M4560 2115 l0 -55 85 0 85 0 0 55 0 55 -85 0 -85 0 0 -55z"/>
<path d="M8400 2220 c0 -17 7 -20 45 -20 38 0 45 3 45 20 0 17 -7 20 -45 20
-38 0 -45 -3 -45 -20z"/>
<path d="M8510 2220 c0 -17 7 -20 45 -20 38 0 45 3 45 20 0 17 -7 20 -45 20
-38 0 -45 -3 -45 -20z"/>
<path d="M8405 2181 c-3 -2 -5 -13 -5 -23 0 -15 8 -18 45 -18 38 0 45 3 45 20
0 11 -3 20 -7 21 -28 4 -75 4 -78 0z"/>
<path d="M8528 2182 c-10 -2 -18 -12 -18 -23 0 -16 7 -19 45 -19 37 0 45 3 45
19 0 19 -35 30 -72 23z"/>
<path d="M1782 2128 c2 -50 6 -63 21 -66 15 -3 17 5 17 62 0 60 -2 66 -20 66
-19 0 -21 -5 -18 -62z"/>
<path d="M4890 2190 c0 -17 7 -20 40 -20 33 0 40 3 40 20 0 17 -7 20 -40 20
-33 0 -40 -3 -40 -20z"/>
<path d="M4890 2125 c0 -22 4 -25 40 -25 36 0 40 3 40 25 0 23 -4 25 -40 25
-36 0 -40 -2 -40 -25z"/>
</g>
</svg>
